<svg width="174" height="154" viewBox="0 0 174 154" fill="none" xmlns="http://www.w3.org/2000/svg">
<line x1="13" y1="111.5" x2="173" y2="111.5" stroke="#464646"/>
<path d="M14.031 3.2H18.231V4.6H15.571V7.19H17.685V8.59H15.571V11.6H18.231V13H14.031V3.2ZM19.117 3.2H21.469C22.2343 3.2 22.8083 3.40533 23.191 3.816C23.5736 4.22667 23.765 4.82867 23.765 5.622V10.578C23.765 11.3713 23.5736 11.9733 23.191 12.384C22.8083 12.7947 22.2343 13 21.469 13H19.117V3.2ZM21.441 11.6C21.693 11.6 21.8843 11.5253 22.015 11.376C22.155 11.2267 22.225 10.984 22.225 10.648V5.552C22.225 5.216 22.155 4.97333 22.015 4.824C21.8843 4.67467 21.693 4.6 21.441 4.6H20.657V11.6H21.441ZM24.8045 3.2H26.3445V13H24.8045V3.2ZM28.7018 4.6H27.0918V3.2H31.8518V4.6H30.2418V13H28.7018V4.6ZM34.8396 3.2H37.0376L38.0176 10.214H38.0456L39.0256 3.2H41.2236V13H39.7676V5.58H39.7396L38.6196 13H37.3316L36.2116 5.58H36.1836V13H34.8396V3.2ZM43.7868 8.828L41.9248 3.2H43.5628L44.6128 6.798H44.6408L45.6908 3.2H47.1888L45.3268 8.828V13H43.7868V8.828ZM50.1248 3.2H52.4068C53.2001 3.2 53.7788 3.38667 54.1428 3.76C54.5068 4.124 54.6888 4.68867 54.6888 5.454V6.056C54.6888 7.07333 54.3528 7.71733 53.6808 7.988V8.016C54.0541 8.128 54.3154 8.35667 54.4648 8.702C54.6234 9.04733 54.7028 9.50933 54.7028 10.088V11.81C54.7028 12.09 54.7121 12.3187 54.7308 12.496C54.7494 12.664 54.7961 12.832 54.8708 13H53.3028C53.2468 12.8413 53.2094 12.692 53.1908 12.552C53.1721 12.412 53.1628 12.16 53.1628 11.796V10.004C53.1628 9.556 53.0881 9.24333 52.9388 9.066C52.7988 8.88867 52.5514 8.8 52.1968 8.8H51.6648V13H50.1248V3.2ZM52.2248 7.4C52.5328 7.4 52.7614 7.32067 52.9108 7.162C53.0694 7.00333 53.1488 6.73733 53.1488 6.364V5.608C53.1488 5.25333 53.0834 4.99667 52.9528 4.838C52.8314 4.67933 52.6354 4.6 52.3648 4.6H51.6648V7.4H52.2248ZM56.9613 3.2H59.0473L60.6433 13H59.1033L58.8233 11.054V11.082H57.0733L56.7933 13H55.3653L56.9613 3.2ZM58.6413 9.752L57.9553 4.908H57.9273L57.2553 9.752H58.6413ZM61.3904 3.2H62.9304V13H61.3904V3.2ZM64.0838 3.2H66.0158L67.5138 9.066H67.5418V3.2H68.9138V13H67.3318L65.4838 5.846H65.4558V13H64.0838V3.2ZM70.0584 3.2H72.3824C73.1757 3.2 73.7544 3.38667 74.1184 3.76C74.4824 4.124 74.6644 4.68867 74.6644 5.454V5.846C74.6644 6.35 74.5804 6.76067 74.4124 7.078C74.2537 7.39533 74.0064 7.624 73.6704 7.764V7.792C74.4357 8.05333 74.8184 8.73467 74.8184 9.836V10.676C74.8184 11.432 74.6177 12.0107 74.2164 12.412C73.8244 12.804 73.2457 13 72.4804 13H70.0584V3.2ZM72.2004 7.19C72.5084 7.19 72.737 7.11067 72.8864 6.952C73.045 6.79333 73.1244 6.52733 73.1244 6.154V5.608C73.1244 5.25333 73.059 4.99667 72.9284 4.838C72.807 4.67933 72.611 4.6 72.3404 4.6H71.5984V7.19H72.2004ZM72.4804 11.6C72.751 11.6 72.9517 11.53 73.0824 11.39C73.213 11.2407 73.2784 10.9887 73.2784 10.634V9.78C73.2784 9.332 73.199 9.024 73.0404 8.856C72.891 8.67867 72.639 8.59 72.2844 8.59H71.5984V11.6H72.4804ZM77.9445 13.14C77.1885 13.14 76.6099 12.9253 76.2085 12.496C75.8072 12.0667 75.6065 11.46 75.6065 10.676V5.524C75.6065 4.74 75.8072 4.13333 76.2085 3.704C76.6099 3.27467 77.1885 3.06 77.9445 3.06C78.7005 3.06 79.2792 3.27467 79.6805 3.704C80.0819 4.13333 80.2825 4.74 80.2825 5.524V10.676C80.2825 11.46 80.0819 12.0667 79.6805 12.496C79.2792 12.9253 78.7005 13.14 77.9445 13.14ZM77.9445 11.74C78.4765 11.74 78.7425 11.418 78.7425 10.774V5.426C78.7425 4.782 78.4765 4.46 77.9445 4.46C77.4125 4.46 77.1465 4.782 77.1465 5.426V10.774C77.1465 11.418 77.4125 11.74 77.9445 11.74ZM80.96 3.2H82.444L83.13 10.732H83.158L83.886 3.2H85.566L86.294 10.732H86.322L87.008 3.2H88.338L87.344 13H85.426L84.726 6.392H84.698L83.998 13H81.954L80.96 3.2Z" fill="#464646"/>
<path d="M83.2352 150.14C82.4979 150.14 81.9332 149.93 81.5412 149.51C81.1585 149.09 80.9672 148.497 80.9672 147.732V142.468C80.9672 141.703 81.1585 141.11 81.5412 140.69C81.9332 140.27 82.4979 140.06 83.2352 140.06C83.9725 140.06 84.5325 140.27 84.9152 140.69C85.3072 141.11 85.5032 141.703 85.5032 142.468V143.504H84.0472V142.37C84.0472 141.763 83.7905 141.46 83.2772 141.46C82.7639 141.46 82.5072 141.763 82.5072 142.37V147.844C82.5072 148.441 82.7639 148.74 83.2772 148.74C83.7905 148.74 84.0472 148.441 84.0472 147.844V146.346H85.5032V147.732C85.5032 148.497 85.3072 149.09 84.9152 149.51C84.5325 149.93 83.9725 150.14 83.2352 150.14ZM86.4246 140.2H87.9646V148.6H90.4986V150H86.4246V140.2ZM93.4084 150.14C92.6524 150.14 92.0737 149.925 91.6724 149.496C91.2711 149.067 91.0704 148.46 91.0704 147.676V142.524C91.0704 141.74 91.2711 141.133 91.6724 140.704C92.0737 140.275 92.6524 140.06 93.4084 140.06C94.1644 140.06 94.7431 140.275 95.1444 140.704C95.5457 141.133 95.7464 141.74 95.7464 142.524V147.676C95.7464 148.46 95.5457 149.067 95.1444 149.496C94.7431 149.925 94.1644 150.14 93.4084 150.14ZM93.4084 148.74C93.9404 148.74 94.2064 148.418 94.2064 147.774V142.426C94.2064 141.782 93.9404 141.46 93.4084 141.46C92.8764 141.46 92.6104 141.782 92.6104 142.426V147.774C92.6104 148.418 92.8764 148.74 93.4084 148.74ZM98.7899 150.14C98.0432 150.14 97.4785 149.93 97.0959 149.51C96.7132 149.081 96.5219 148.469 96.5219 147.676V147.116H97.9779V147.788C97.9779 148.423 98.2439 148.74 98.7759 148.74C99.0372 148.74 99.2332 148.665 99.3639 148.516C99.5039 148.357 99.5739 148.105 99.5739 147.76C99.5739 147.349 99.4805 146.99 99.2939 146.682C99.1072 146.365 98.7619 145.987 98.2579 145.548C97.6232 144.988 97.1799 144.484 96.9279 144.036C96.6759 143.579 96.5499 143.065 96.5499 142.496C96.5499 141.721 96.7459 141.124 97.1379 140.704C97.5299 140.275 98.0992 140.06 98.8459 140.06C99.5832 140.06 100.139 140.275 100.512 140.704C100.895 141.124 101.086 141.731 101.086 142.524V142.93H99.6299V142.426C99.6299 142.09 99.5645 141.847 99.4339 141.698C99.3032 141.539 99.1119 141.46 98.8599 141.46C98.3465 141.46 98.0899 141.773 98.0899 142.398C98.0899 142.753 98.1832 143.084 98.3699 143.392C98.5659 143.7 98.9159 144.073 99.4199 144.512C100.064 145.072 100.507 145.581 100.75 146.038C100.993 146.495 101.114 147.032 101.114 147.648C101.114 148.451 100.913 149.067 100.512 149.496C100.12 149.925 99.5459 150.14 98.7899 150.14ZM101.997 140.2H106.197V141.6H103.537V144.19H105.651V145.59H103.537V148.6H106.197V150H101.997V140.2Z" fill="#464646"/>
<path d="M13 20L173 20" stroke="#464646"/>
<g clip-path="url(#clip0_79_209)">
<path d="M166.417 4.08333L169.917 7.58333" stroke="#464646" stroke-linecap="round" stroke-linejoin="round"/>
<path d="M162.333 9.33306L169.158 2.50806C169.267 2.40118 169.414 2.34131 169.567 2.34131C169.719 2.34131 169.866 2.40118 169.975 2.50806L171.492 4.02473C171.598 4.13377 171.658 4.28037 171.658 4.43306C171.658 4.58575 171.598 4.73235 171.492 4.84139L164.667 11.6664H162.333V9.33306Z" stroke="#464646" stroke-linecap="round" stroke-linejoin="round"/>
</g>
<path d="M9.75 31L4.875 36.25L2.25 33.25" stroke="#718BE6" stroke-linecap="round" stroke-linejoin="round"/>
<defs>
<clipPath id="clip0_79_209">
<rect width="14" height="14" fill="white" transform="translate(160)"/>
</clipPath>
</defs>
</svg>
