<svg width="14" height="14" viewBox="0 0 14 14" fill="none" xmlns="http://www.w3.org/2000/svg">
<g clip-path="url(#clip0_73_183)">
<path d="M2.33331 4.66667C2.33331 4.97609 2.45623 5.27283 2.67502 5.49162C2.89381 5.71042 3.19056 5.83333 3.49998 5.83333C3.8094 5.83333 4.10615 5.71042 4.32494 5.49162C4.54373 5.27283 4.66665 4.97609 4.66665 4.66667C4.66665 4.35725 4.54373 4.0605 4.32494 3.84171C4.10615 3.62292 3.8094 3.5 3.49998 3.5C3.19056 3.5 2.89381 3.62292 2.67502 3.84171C2.45623 4.0605 2.33331 4.35725 2.33331 4.66667Z" stroke="#464646" stroke-width="1.5" stroke-linecap="round" stroke-linejoin="round"/>
<path d="M11.6666 5.25C11.6666 4.78587 11.4823 4.34075 11.1541 4.01256C10.8259 3.68437 10.3808 3.5 9.91665 3.5H9.33331C8.86918 3.5 8.42406 3.68437 8.09588 4.01256C7.76769 4.34075 7.58331 4.78587 7.58331 5.25V8.75C7.58331 9.21413 7.76769 9.65925 8.09588 9.98744C8.42406 10.3156 8.86918 10.5 9.33331 10.5H9.91665C10.3808 10.5 10.8259 10.3156 11.1541 9.98744C11.4823 9.65925 11.6666 9.21413 11.6666 8.75" stroke="#464646" stroke-width="1.5" stroke-linecap="round" stroke-linejoin="round"/>
</g>
<defs>
<clipPath id="clip0_73_183">
<rect width="14" height="14" fill="white"/>
</clipPath>
</defs>
</svg>
